<mxfile host="app.diagrams.net" modified="2024-01-19T01:22:47.395Z" agent="Mozilla/5.0 (Windows NT 10.0; Win64; x64) AppleWebKit/537.36 (KHTML, like Gecko) Chrome/120.0.0.0 Safari/537.36" etag="cD6vdh9zQZSLP4tL-YtL" version="22.1.21" type="device">
  <diagram name="Page-1" id="W8BKanMhP7pLT_wPg3o4">
    <mxGraphModel dx="988" dy="700" grid="1" gridSize="10" guides="1" tooltips="1" connect="1" arrows="1" fold="1" page="1" pageScale="1" pageWidth="850" pageHeight="1100" math="0" shadow="0">
      <root>
        <mxCell id="0" />
        <mxCell id="1" parent="0" />
        <mxCell id="D0wNAowwjaqCvrToGeFX-7" value="" style="shape=image;verticalLabelPosition=bottom;labelBackgroundColor=default;verticalAlign=top;aspect=fixed;imageAspect=0;image=https://static-00.iconduck.com/assets.00/database-mysql-icon-462x512-6itsq0zm.png;" vertex="1" parent="1">
          <mxGeometry x="38.510000000000005" y="290" width="92.98" height="103.04" as="geometry" />
        </mxCell>
        <mxCell id="D0wNAowwjaqCvrToGeFX-10" value="" style="rounded=1;whiteSpace=wrap;html=1;strokeColor=#1d63ed;fillColor=#8EABED;" vertex="1" parent="1">
          <mxGeometry x="88.51" y="10" width="400" height="150" as="geometry" />
        </mxCell>
        <mxCell id="D0wNAowwjaqCvrToGeFX-13" value="" style="shape=image;verticalLabelPosition=bottom;labelBackgroundColor=default;verticalAlign=top;aspect=fixed;imageAspect=0;image=data:image/svg+xml,PHN2ZyB4bWxucz0iaHR0cDovL3d3dy53My5vcmcvMjAwMC9zdmciIGZpbGw9IiMxZDYzZWQiIHZpZXdCb3g9Ii01LjcyNCAtNDMuNjAxIDIwMDAgNjAwIj48cGF0aCBkPSJtOTM0Ljk1NyAxNDkuMjIxYy0xMC40NzktLjM0NS0xOS4yNTMgNy44NjktMTkuNTk5IDE4LjM0OC0uMDE0LjQxNy0uMDE0LjgzNCAwIDEuMjUxdjk0LjI0Yy00NS40Ny0zNi41MTctMTExLjkzMy0yOS4yNTgtMTQ4LjQ0OSAxNi4yMTEtMTUuMDY0IDE4Ljc1OC0yMy4yNzEgNDIuMDk2LTIzLjI2NCA2Ni4xNTMtLjk5NiA1OC4yOTIgNDUuNDUxIDEwNi4zNTQgMTAzLjc0NCAxMDcuMzUxIDU4LjI5Mi45OTYgMTA2LjM1NC00NS40NTEgMTA3LjM1MS0xMDMuNzQzLjAyMS0xLjIwMy4wMjEtMi40MDUgMC0zLjYwN3YtMTc2LjUxMmMuMTU3LTUuMjktMS45MzMtMTAuMzk5LTUuNzUzLTE0LjA2MS0zLjc0MS0zLjY1OC04Ljc5OS01LjY1NS0xNC4wMy01LjUzOG0tMjQuNzk5IDIyMS41MjVjLTYuNzQxIDE1Ljg1NS0xOS4zMjEgMjguNTEzLTM1LjEzNiAzNS4zNTItMTYuNTY5IDcuMDE1LTM1LjI3NCA3LjAxNS01MS44NDQgMC0xNS43ODItNi43NzUtMjguMzE0LTE5LjQxOC0zNC45NTEtMzUuMjYtNi45MzUtMTYuMzgzLTYuOTM1LTM0Ljg3NiAwLTUxLjI1OCA2LjY1MS0xNS43ODkgMTkuMTg3LTI4LjM2OCAzNC45NTEtMzUuMDc1IDE2LjU2OS03LjAxNSAzNS4yNzQtNy4wMTUgNTEuODQ0IDAgMTUuODE0IDYuODM5IDI4LjM5NSAxOS40OTUgMzUuMTM2IDM1LjM1MiA2LjkzMyAxNi4zMTkgNi45MzMgMzQuNzU1IDAgNTEuMDc0Ii8+PHBhdGggZD0ibTExNTUuMzQ0IDI3MC42OWMtNDEuMjQzLTQxLjIwNi0xMDguMDgyLTQxLjE3Ni0xNDkuMjg4LjA2Ny0xOS43NjkgMTkuNzg1LTMwLjg3NiA0Ni42MDYtMzAuODg2IDc0LjU3NC0uOTk2IDU4LjI5MyA0NS40NTEgMTA2LjM1NSAxMDMuNzQ0IDEwNy4zNTIgNTguMjkyLjk5NiAxMDYuMzU0LTQ1LjQ1MiAxMDcuMzUxLTEwMy43NDQuMDIxLTEuMjAyLjAyMS0yLjQwNCAwLTMuNjA3LjAwOS0xMy44ODItMi42NDUtMjcuNjM3LTcuODE1LTQwLjUyMS01LjMyNi0xMi44MTMtMTMuMTg1LTI0LjQxOC0yMy4xMDYtMzQuMTIxbS0xMy42MyAxMDAuMDU2Yy0zLjM3MSA3LjgyMy04LjE3IDE0Ljk1LTE0LjE1MyAyMS4wMTUtNi4wMzYgNi4wNjMtMTMuMTY2IDEwLjkyOS0yMS4wMTUgMTQuMzM3LTE2LjU1OCA3LjAxNy0zNS4yNTQgNy4wMTctNTEuODEyIDAtMTUuOC02Ljc2LTI4LjM0Ny0xOS40MDYtMzQuOTgyLTM1LjI1OS02LjkzNS0xNi4zODMtNi45MzUtMzQuODc2IDAtNTEuMjU5IDYuNjctMTUuNzY1IDE5LjIxOC0yOC4zMTIgMzQuOTgyLTM0Ljk4MiAxNi41NTgtNy4wMTcgMzUuMjU0LTcuMDE3IDUxLjgxMiAwIDcuODQ5IDMuNDA4IDE0Ljk3OSA4LjI3MyAyMS4wMTUgMTQuMzM4IDUuOTgzIDYuMDYzIDEwLjc4MiAxMy4xOSAxNC4xNTMgMjEuMDE0IDYuODkzIDE2LjMyNyA2Ljg5MyAzNC43NDcgMCA1MS4wNzQiLz48cGF0aCBkPSJtMTU5MS43NDcgMjU5LjM2OGMuMDEzLTIuNTk1LS41MjEtNS4xNjMtMS41NjgtNy41MzgtMS4wNjYtMi4yNzktMi41MTMtNC4zNi00LjI3Ny02LjE1NC0xLjc0Mi0xLjgxNi0zLjgzNi0zLjI2MS02LjE1My00LjI0Ni0yLjQ0OC0xLjAxLTUuMDczLTEuNTIyLTcuNzIzLTEuNTA4LTMuNzQyLS4wMjUtNy40MTEgMS4wNDQtMTAuNTU0IDMuMDc3bC0xMTIuNyA3My4zMTl2LTE0Ny4yMjFjLjEtNS4yNy0xLjk4Mi0xMC4zNDctNS43NTMtMTQuMDMtMy42MjYtMy44MS04LjY4LTUuOTI5LTEzLjkzOC01Ljg0Ni0xMC44NTctLjA2OC0xOS43MTUgOC42NzktMTkuNzgzIDE5LjUzN3YuMjQ3IDI2MS45ODNjLS4wNjMgNS4yMzYgMi4wMTYgMTAuMjcxIDUuNzU0IDEzLjkzOCAzLjY1MyAzLjgyMyA4Ljc0MSA1Ljk0MyAxNC4wMjkgNS44NDYgNS4yNDEuMDg1IDEwLjI3Ni0yLjAzNyAxMy44NzYtNS44NDYgMy43MzgtMy42NjcgNS44MTctOC43MDIgNS43NTQtMTMuOTM4di02Ny45MzRsMjIuOTgzLTE1LjA3NiA4Ny4xMDMgOTcuODFjMy41MjggMy4zOTMgOC4yNzUgNS4yMjMgMTMuMTY4IDUuMDc2IDIuNjUuMDMgNS4yNzgtLjQ4MyA3LjcyMy0xLjUwOCAyLjMyMi0uOTYyIDQuNDE4LTIuMzk3IDYuMTUzLTQuMjE1IDEuNzkyLTEuODQxIDMuMjQxLTMuOTg3IDQuMjc2LTYuMzM4IDEuMDQ4LTIuMzc1IDEuNTgyLTQuOTQzIDEuNTctNy41MzguMDEyLTUuMTEyLTEuOTM4LTEwLjAzNS01LjQ0Ni0xMy43NTNsLTgwLjk3OS05MS4yMjYgNzguOTQ5LTUxLjI1OGM1LjA5OS0zLjUyMyA3Ljk2My05LjQ3NSA3LjUzNi0xNS42NiIvPjxwYXRoIGQ9Im0xMjY0Ljc1MiAyOTguNTA1YzYuMDg1LTYuMDE2IDEzLjI1OC0xMC44MTggMjEuMTM4LTE0LjE1MyA4LjE2LTMuNDcyIDE2Ljk0NS01LjIzIDI1LjgxMy01LjE2OSA3Ljg1MS0uMDcyIDE1LjY0NiAxLjMyNiAyMi45ODMgNC4xMjMgNy4zNTMgMi45NTcgMTQuMTYzIDcuMTE2IDIwLjE1MiAxMi4zMDcgMy42NDEgMi45IDguMTc2IDQuNDQ1IDEyLjgzIDQuMzY5IDUuMzA0LjIyMyAxMC40NTktMS43ODYgMTQuMjE1LTUuNTM4IDMuNjk3LTMuNzY4IDUuNzA3LTguODc2IDUuNTY4LTE0LjE1My4wNjUtNS43MjktMi40MjgtMTEuMTg4LTYuOC0xNC44OTItMTguODg1LTE2LjkwMy00My40NTQtMjYuMDU2LTY4Ljc5Ni0yNS42MjktNTguMzAxIDAtMTA1LjU2MiA0Ny4yNjItMTA1LjU2MiAxMDUuNTYyLS4xNDYgNTguMjE2IDQ2LjkyOSAxMDUuNTI3IDEwNS4xNDUgMTA1LjY3NCAyNS40MTIuMDYzIDQ5Ljk5Mi05LjA1NiA2OS4yMTQtMjUuNjc5IDMuOTY1LTMuNzczIDYuMTkyLTkuMDE5IDYuMTUzLTE0LjQ5MS4zNDYtMTAuNDc5LTcuODY4LTE5LjI1My0xOC4zNDctMTkuNTk5LS40MTctLjAxNC0uODM1LS4wMTQtMS4yNTIgMC00LjQ4NS4wMi04Ljg0OSAxLjQ2My0xMi40NjEgNC4xMjMtNS44OTIgNS4xODktMTIuNjUgOS4zMDQtMTkuOTY4IDEyLjE1Mi03LjM0NSAyLjc2Mi0xNS4xMzcgNC4xMzktMjIuOTgzIDQuMDYyLTguODY3LjA2Mi0xNy42NTMtMS42OTctMjUuODEzLTUuMTY5LTcuODczLTMuMzQ2LTE1LjA0NS04LjE0Ny0yMS4xMzctMTQuMTUyLTI1Ljg2Mi0yNS43MDgtMjUuOTg4LTY3LjUxNC0uMjgxLTkzLjM3Ni4wOTQtLjA5NC4xODgtLjE4Ny4yODEtLjI4Ii8+PHBhdGggZD0ibTE5ODMuMjYyIDI1Mi45NjljLTMuODEzLTMuNTc4LTguMzQ1LTYuMzA0LTEzLjI5Mi04LTUuNjU3LTIuMDMxLTExLjUzMi0zLjM5NC0xNy41MDYtNC4wNjEtNS45MS0uNzI2LTExLjg1OS0xLjA5Ni0xNy44MTQtMS4xMDgtMTIuMDg0LS4wMzctMjQuMDggMi4wNDUtMzUuNDQzIDYuMTU0LTExLjEzNyA0LjA2MS0yMS41MzEgOS45MjMtMzAuNzY4IDE3LjM1M3YtMy45MzhjLS40MzEtMTAuODgzLTkuNjAzLTE5LjM1Ny0yMC40ODYtMTguOTI3LTEwLjI3OS40MDYtMTguNTIxIDguNjQ3LTE4LjkyNyAxOC45Mjd2MTcxLjg5N2MuNDMgMTAuODg0IDkuNjAyIDE5LjM1NyAyMC40ODUgMTguOTI4IDEwLjI4LS40MDYgMTguNTIxLTguNjQ3IDE4LjkyOC0xOC45Mjh2LTg1LjkzNGMtLjA1OS04Ljg3NyAxLjY5OS0xNy42NzMgNS4xNjgtMjUuODQ0IDMuMzE4LTcuODM2IDguMTEzLTE0Ljk2IDE0LjEyMy0yMC45ODMgNi4wNDctNi4wMDMgMTMuMTc4LTEwLjgwNiAyMS4wMTQtMTQuMTUzIDguMTcyLTMuNDcyIDE2Ljk2Ny01LjIzIDI1Ljg0NS01LjE2OSA4LjgyNS0uMDg3IDE3LjU4NyAxLjUxMSAyNS44MTMgNC43MDcgMi41OTkgMS4yNTEgNS40MjcgMS45NTMgOC4zMDggMi4wNjIgMi42NDkuMDI0IDUuMjc2LS40ODkgNy43MjMtMS41MDggMi4zMTktLjk4IDQuNDEzLTIuNDI1IDYuMTUzLTQuMjQ1IDEuNzU4LTEuNzkzIDMuMTk0LTMuODc0IDQuMjQ2LTYuMTUzIDEuMDY4LTIuNDM0IDEuNjE0LTUuMDY1IDEuNi03LjcyMy4xOTEtNC45NTItMS43MzItOS43NTEtNS4yOTEtMTMuMiIvPjxwYXRoIGQ9Im0xODAwLjEwNCAzMDQuOTY2Yy0xNi43NjUtMzkuMTg4LTU1LjE4Ny02NC42OS05Ny44MS02NC45MTktNTguMjgzLS4wMTctMTA1LjU0NSA0Ny4yMTctMTA1LjU2MiAxMDUuNTAxdi4wM2MtLjAxMSA1OC4zMTggNDcuMjU2IDEwNS42MDQgMTA1LjU3MyAxMDUuNjE0IDI1LjMxNy4wMDUgNDkuNzk1LTkuMDg3IDY4Ljk3LTI1LjYxOS4yNzctLjI3Ni43MDgtLjY0Ni43Ny0uNzM4IDEuNzE5LTEuMzkyIDMuMjIyLTMuMDI5IDQuNDYxLTQuODYxIDYuMzM2LTkuMTI1IDQuMDc2LTIxLjY1OC01LjA0NS0yNy45OTgtNy42NDYtNC45NjctMTcuNjk4LTQuMDY1LTI0LjMzOCAyLjE4NS0uNjQ2LjU4NS0yLjQ5MiAyLjMwOC0yLjc5OSAyLjU1NGwtLjI3Ny4yNDZjLTUuNjE3IDQuNzc3LTEyLjAzMyA4LjUyNi0xOC45NTMgMTEuMDc2LTcuMzIgMi41OC0xNS4wMzcgMy44NTEtMjIuNzk4IDMuNzU0LTcuMTUzLjAzNS0xNC4yNjQtMS4xMDgtMjEuMDQ2LTMuMzg1LTYuNjAzLTIuMjA3LTEyLjgyOC01LjQxMy0xOC40Ni05LjUwNy01LjYxMi00LjEwNS0xMC41NDQtOS4wNjgtMTQuNjE0LTE0LjcwNy00LjE1OC01Ljc1Ny03LjM0LTEyLjE2LTkuNDE1LTE4Ljk1MmgxNDkuMjUzYzUuMjM3LjExOSAxMC4yOTktMS44OTEgMTQuMDI5LTUuNTY5IDMuODM5LTMuNjM3IDUuOTM0LTguNzQ1IDUuNzU0LTE0LjAzLjEyLTEzLjkxMy0yLjUwNC0yNy43MTQtNy43MjMtNDAuNjEybS0xNjEuMzQ1IDIxLjAxMmMxLjk3Mi02Ljc5OCA1LjA5NC0xMy4yMDggOS4yMjktMTguOTUyIDQuMDk1LTUuNjQ4IDkuMDU5LTEwLjYxMiAxNC43MDctMTQuNzA3IDUuNzEyLTQuMDkgMTIuMDA4LTcuMjk1IDE4LjY3Ni05LjUwNyA2Ljc0Ny0yLjI0NyAxMy44MTItMy4zOSAyMC45MjItMy4zODUgNy4wNy0uMDA4IDE0LjA5NSAxLjEzNiAyMC43OTkgMy4zODUgMTMuMzA3IDQuNDIyIDI0LjkwMSAxMi44ODcgMzMuMTY3IDI0LjIxNCA0LjIyMSA1LjczNyA3LjQ0NSAxMi4xNDUgOS41MzggMTguOTUyeiIvPjxwYXRoIGQ9Im0xOTE1Ljk0MiA0MjIuMzQzYy03LjU0My4xMTktMTMuNTYyIDYuMzMxLTEzLjQ0MyAxMy44NzVzNi4zMzIgMTMuNTYyIDEzLjg3NSAxMy40NDNjNy40OTUtLjExOCAxMy40OTQtNi4yNTQgMTMuNDQ1LTEzLjc1LS4wODUtNy41NzgtNi4yOTctMTMuNjUyLTEzLjg3NS0xMy41NjggMCAwLS4wMDEgMC0uMDAyIDBtMCAyNC4zOThjLTUuOTc1LjI3Mi0xMS4wMzktNC4zNTItMTEuMzExLTEwLjMyNi0uMjcxLTUuOTc2IDQuMzUyLTExLjA0IDEwLjMyNy0xMS4zMTIgNS45NzUtLjI3MSAxMS4wMzkgNC4zNTIgMTEuMzExIDEwLjMyNy4wMDkuMTkuMDEzLjM4Mi4wMTEuNTczLjIwNCA1LjcyMy00LjI3IDEwLjUyNy05Ljk5MiAxMC43MzEtLjExNS4wMDUtLjIzLjAwNy0uMzQ2LjAwNyIvPjxwYXRoIGQ9Im0xOTE5LjA4MSA0MzYuMzQydi0uMTg1YzEuNTEyLS4yOTIgMi42NS0xLjU0NCAyLjgtMy4wNzYuMDU3LTEuMTc1LS40MzItMi4zMTEtMS4zMjMtMy4wNzctMS40NDUtLjc2NS0zLjA3Ni0xLjEwNi00LjcwNy0uOTg0LTEuNzQzLS4wMjQtMy40ODQuMTItNS4yLjQzMXYxMy41MzhoMy4wNzd2LTUuNDQ2aDEuNDc3YzEuNzU0IDAgMi41NTQuNjQ2IDIuODMgMi4xNTQuMTg0IDEuMTQzLjUzNiAyLjI1MiAxLjA0NyAzLjI5MmgzLjQxNWMtLjUzLTEuMDYyLS44NzMtMi4yMDctMS4wMTYtMy4zODUtLjEzOC0xLjQ3My0xLjA4OC0yLjc0NC0yLjQ2Mi0zLjI5Mm0tMy43MjMtLjk4NWgtMS41MDh2LTMuOTA4Yy41ODMtLjA2OSAxLjE3Mi0uMDY5IDEuNzU0IDAgMS45NyAwIDIuODkzLjgzMSAyLjg5MyAyLjA2MnMtMS40MTUgMi0zLjA3NiAyIi8+PHBhdGggZD0ibTcwNy40OTQgMTkzLjU1N2MtMS45MzgtMS41MzktMjAuMDI5LTE1LjE5OS01OC4xODEtMTUuMTk5LTEwLjA3NC4wNDQtMjAuMTI3LjkwOC0zMC4wNjEgMi41ODQtNy4zODQtNTAuNjEyLTQ5LjIyOC03NS4yODgtNTEuMTA0LTc2LjM5NWwtMTAuMjQ1LTUuOTA4LTYuNzM4IDkuNzIzYy04LjQzOCAxMy4wNjEtMTQuNTk4IDI3LjQ1OS0xOC4yMTQgNDIuNTgyLTYuODMxIDI4Ljg5MS0yLjY3NyA1Ni4wMjcgMTEuOTk5IDc5LjIyNi0xNy43MjIgOS44NzYtNDYuMTUxIDEyLjMwNy01MS45MDQgMTIuNTIyaC00NzAuNjc5Yy0xMi4yOTQuMDE3LTIyLjI3IDkuOTUyLTIyLjMzNyAyMi4yNDUtLjU0OSA0MS4yMzQgNi40MzcgODIuMjIyIDIwLjYxNCAxMjAuOTQ2IDE2LjIxNCA0Mi41MjEgNDAuMzM2IDczLjg0MiA3MS43MTkgOTMuMDEgMzUuMTY3IDIxLjUzNyA5Mi4zMDIgMzMuODQ0IDE1Ny4wNjcgMzMuODQ0IDI5LjI1OC4wOTIgNTguNDYxLTIuNTU2IDg3LjIyNi03LjkwNyAzOS45ODYtNy4zNDIgNzguNDYzLTIxLjMxOCAxMTMuODM5LTQxLjM1MiAyOS4xNDktMTYuODggNTUuMzgzLTM4LjM1NCA3Ny42ODgtNjMuNTk2IDM3LjI5LTQyLjIxMyA1OS41MDUtODkuMjI2IDc2LjAyNi0xMzEuMDA3aDYuNTg0YzQwLjgyOCAwIDY1LjkzNS0xNi4zMzggNzkuNzgtMzAuMDI5IDkuMjAxLTguNzMyIDE2LjM4NC0xOS4zNjkgMjEuMDQ1LTMxLjE2N2wyLjkyMy04LjU1M3oiLz48cGF0aCBkPSJtNjUuOTk1IDIyOC45MDloNjMuMDczYzMuMDQyIDAgNS41MDctMi40NjYgNS41MDctNS41MDd2LTU2LjE4MmMuMDE3LTMuMDQyLTIuNDM1LTUuNTIxLTUuNDc2LTUuNTM4LS4wMSAwLS4wMjEgMC0uMDMxIDBoLTYzLjA3M2MtMy4wNDIgMC01LjUwNyAyLjQ2Ni01LjUwNyA1LjUwN3YuMDMxIDU2LjE4MWMwIDMuMDQyIDIuNDY1IDUuNTA4IDUuNTA3IDUuNTA4eiIvPjxwYXRoIGQ9Im0xNTIuOTEzIDIyOC45MDloNjMuMDczYzMuMDQyIDAgNS41MDctMi40NjYgNS41MDctNS41MDd2LTU2LjE4MmMuMDE3LTMuMDQyLTIuNDM1LTUuNTIxLTUuNDc3LTUuNTM4LS4wMSAwLS4wMjEgMC0uMDMxIDBoLTYzLjA3M2MtMy4wNTkgMC01LjUzOCAyLjQ3OS01LjUzOCA1LjUzOHY1Ni4xODFjLjAxOCAzLjA0NyAyLjQ5MiA1LjUwOCA1LjUzOSA1LjUwOCIvPjxwYXRoIGQ9Im0yNDEuMTUzIDIyOC45MDloNjMuMDczYzMuMDQyIDAgNS41MDctMi40NjYgNS41MDctNS41MDd2LTU2LjE4MmMuMDE3LTMuMDQyLTIuNDM1LTUuNTIxLTUuNDc3LTUuNTM4LS4wMSAwLS4wMjEgMC0uMDMxIDBoLTYzLjA3M2MtMy4wNDIgMC01LjUwNyAyLjQ2Ni01LjUwNyA1LjUwN3YuMDMxIDU2LjE4MWMuMDAxIDMuMDQyIDIuNDY3IDUuNTA4IDUuNTA4IDUuNTA4eiIvPjxwYXRoIGQ9Im0zMjguMzQ4IDIyOC45MDloNjMuMDczYzMuMDQ3IDAgNS41MjEtMi40NiA1LjUzOC01LjUwN3YtNTYuMTgyYzAtMy4wNTktMi40NzktNS41MzgtNS41MzgtNS41MzhoLTYzLjA3M2MtMy4wNDIgMC01LjUwNyAyLjQ2Ni01LjUwNyA1LjUwN3YuMDMxIDU2LjE4MWMwIDMuMDQyIDIuNDY2IDUuNTA4IDUuNTA3IDUuNTA4eiIvPjxwYXRoIGQ9Im0xNTIuOTEzIDE0OC4wODNoNjMuMDczYzMuMDQ2LS4wMTcgNS41MDctMi40OTIgNS41MDctNS41Mzh2LTU2LjE4MWMwLTMuMDQyLTIuNDY2LTUuNTA3LTUuNTA3LTUuNTA3aC02My4wNzNjLTMuMDQ2IDAtNS41MjEgMi40Ni01LjUzOCA1LjUwN3Y1Ni4xODFjLjAxNyAzLjA1MiAyLjQ4NiA1LjUyMSA1LjUzOCA1LjUzOCIvPjxwYXRoIGQ9Im0yNDEuMTUzIDE0OC4wODNoNjMuMDczYzMuMDQ2LS4wMTcgNS41MDctMi40OTIgNS41MDctNS41Mzh2LTU2LjE4MWMwLTMuMDQyLTIuNDY2LTUuNTA3LTUuNTA3LTUuNTA3aC02My4wNzNjLTMuMDQyIDAtNS41MDcgMi40NjYtNS41MDcgNS41MDd2NTYuMTgxYzAgMy4wNDYgMi40NjEgNS41MjEgNS41MDcgNS41MzgiLz48cGF0aCBkPSJtMzI4LjM0OCAxNDguMDgzaDYzLjA3M2MzLjA1Mi0uMDE3IDUuNTIxLTIuNDg2IDUuNTM4LTUuNTM4di01Ni4xODFjLS4wMTctMy4wNDctMi40OTEtNS41MDctNS41MzgtNS41MDdoLTYzLjA3M2MtMy4wNDIgMC01LjUwNyAyLjQ2Ni01LjUwNyA1LjUwN3Y1Ni4xODFjMCAzLjA0NiAyLjQ2MSA1LjUyMSA1LjUwNyA1LjUzOCIvPjxwYXRoIGQ9Im0zMjguMzQ4IDY3LjIyN2g2My4wNzNjMy4wNDcgMCA1LjUyMS0yLjQ2MSA1LjUzOC01LjUwN3YtNTYuMjEzYy0uMDE3LTMuMDQ3LTIuNDkxLTUuNTA3LTUuNTM4LTUuNTA3aC02My4wNzNjLTMuMDQyIDAtNS41MDcgMi40NjUtNS41MDcgNS41MDd2NTYuMjEyYzAgMy4wNDIgMi40NjYgNS41MDggNS41MDcgNS41MDgiLz48cGF0aCBkPSJtNDE2LjMxMiAyMjguOTA5aDYzLjA3M2MzLjA0NyAwIDUuNTIxLTIuNDYgNS41MzgtNS41MDd2LTU2LjE4MmMwLTMuMDU5LTIuNDc5LTUuNTM4LTUuNTM4LTUuNTM4aC02My4wNzNjLTMuMDQxIDAtNS41MDcgMi40NjYtNS41MDcgNS41MDd2LjAzMSA1Ni4xODFjMCAzLjA0MiAyLjQ2NiA1LjUwOCA1LjUwNyA1LjUwOCIvPjwvc3ZnPg==;" vertex="1" parent="1">
          <mxGeometry x="247.01" y="120" width="80" height="24" as="geometry" />
        </mxCell>
        <mxCell id="D0wNAowwjaqCvrToGeFX-14" value="&lt;font color=&quot;#1d63ed&quot;&gt;&lt;b&gt;Container&lt;/b&gt;&lt;/font&gt;" style="text;html=1;strokeColor=none;fillColor=none;align=center;verticalAlign=middle;whiteSpace=wrap;rounded=0;" vertex="1" parent="1">
          <mxGeometry x="270.01" y="130" width="60" height="30" as="geometry" />
        </mxCell>
        <mxCell id="D0wNAowwjaqCvrToGeFX-25" value="" style="group" vertex="1" connectable="0" parent="1">
          <mxGeometry x="103.51" y="29.539999999999992" width="370" height="90.91000000000004" as="geometry" />
        </mxCell>
        <mxCell id="D0wNAowwjaqCvrToGeFX-24" value="REST API" style="rounded=1;whiteSpace=wrap;html=1;verticalAlign=top;fillColor=#d5e8d4;strokeColor=#82b366;" vertex="1" parent="D0wNAowwjaqCvrToGeFX-25">
          <mxGeometry width="370" height="80" as="geometry" />
        </mxCell>
        <mxCell id="D0wNAowwjaqCvrToGeFX-23" value="" style="group" vertex="1" connectable="0" parent="D0wNAowwjaqCvrToGeFX-25">
          <mxGeometry x="38.08" y="9.080000000000027" width="293.84954133352755" height="81.83000000000001" as="geometry" />
        </mxCell>
        <mxCell id="D0wNAowwjaqCvrToGeFX-16" value="" style="shape=image;verticalLabelPosition=bottom;labelBackgroundColor=default;verticalAlign=top;aspect=fixed;imageAspect=0;image=https://www.svgrepo.com/show/354479/typescript.svg;" vertex="1" parent="D0wNAowwjaqCvrToGeFX-23">
          <mxGeometry x="99.62020393120395" width="81.83000000000001" height="81.83000000000001" as="geometry" />
        </mxCell>
        <mxCell id="D0wNAowwjaqCvrToGeFX-15" value="" style="shape=image;verticalLabelPosition=bottom;labelBackgroundColor=default;verticalAlign=top;aspect=fixed;imageAspect=0;image=https://upload.wikimedia.org/wikipedia/commons/thumb/d/d9/Node.js_logo.svg/2560px-Node.js_logo.svg.png;" vertex="1" parent="D0wNAowwjaqCvrToGeFX-23">
          <mxGeometry y="15.760974942650456" width="83.02849832362803" height="50.78456149638257" as="geometry" />
        </mxCell>
        <mxCell id="D0wNAowwjaqCvrToGeFX-17" value="" style="shape=image;verticalLabelPosition=bottom;labelBackgroundColor=default;verticalAlign=top;aspect=fixed;imageAspect=0;image=https://cdn.icon-icons.com/icons2/2699/PNG/512/nestjs_logo_icon_169927.png;" vertex="1" parent="D0wNAowwjaqCvrToGeFX-23">
          <mxGeometry x="191.32739557739558" y="15.284463560967005" width="102.522145756132" height="51.261072878066" as="geometry" />
        </mxCell>
        <mxCell id="D0wNAowwjaqCvrToGeFX-18" value="&lt;font style=&quot;font-size: 21px;&quot;&gt;+&lt;/font&gt;" style="text;html=1;strokeColor=none;fillColor=none;align=center;verticalAlign=middle;whiteSpace=wrap;rounded=0;" vertex="1" parent="D0wNAowwjaqCvrToGeFX-23">
          <mxGeometry x="68.58906633906633" y="30.08519587083113" width="43.31941031941032" height="21.659608258337748" as="geometry" />
        </mxCell>
        <mxCell id="D0wNAowwjaqCvrToGeFX-19" value="&lt;font style=&quot;font-size: 21px;&quot;&gt;+&lt;/font&gt;" style="text;html=1;strokeColor=none;fillColor=none;align=center;verticalAlign=middle;whiteSpace=wrap;rounded=0;" vertex="1" parent="D0wNAowwjaqCvrToGeFX-23">
          <mxGeometry x="169.66769041769044" y="30.08519587083113" width="43.31941031941032" height="21.659608258337748" as="geometry" />
        </mxCell>
        <mxCell id="D0wNAowwjaqCvrToGeFX-27" value="" style="endArrow=classic;html=1;rounded=0;entryX=1;entryY=0;entryDx=0;entryDy=0;exitX=0.25;exitY=1;exitDx=0;exitDy=0;" edge="1" parent="1" source="D0wNAowwjaqCvrToGeFX-10" target="D0wNAowwjaqCvrToGeFX-7">
          <mxGeometry width="50" height="50" relative="1" as="geometry">
            <mxPoint x="108.51" y="210" as="sourcePoint" />
            <mxPoint x="158.51" y="160" as="targetPoint" />
          </mxGeometry>
        </mxCell>
        <mxCell id="D0wNAowwjaqCvrToGeFX-28" value="Store records:&lt;br&gt;Produtos&lt;br&gt;Ingredientes&lt;br&gt;Consumidores&lt;br&gt;Pedidos" style="text;html=1;strokeColor=none;fillColor=none;align=center;verticalAlign=middle;whiteSpace=wrap;rounded=0;" vertex="1" parent="1">
          <mxGeometry x="10" y="393.03999999999996" width="150" height="80" as="geometry" />
        </mxCell>
        <mxCell id="D0wNAowwjaqCvrToGeFX-29" value="" style="endArrow=classic;html=1;rounded=0;entryX=0;entryY=0;entryDx=0;entryDy=0;exitX=0.75;exitY=1;exitDx=0;exitDy=0;" edge="1" parent="1" source="D0wNAowwjaqCvrToGeFX-10" target="D0wNAowwjaqCvrToGeFX-31">
          <mxGeometry width="50" height="50" relative="1" as="geometry">
            <mxPoint x="218.51" y="210" as="sourcePoint" />
            <mxPoint x="438.51" y="291.51999999999987" as="targetPoint" />
          </mxGeometry>
        </mxCell>
        <mxCell id="D0wNAowwjaqCvrToGeFX-31" value="" style="shape=image;verticalLabelPosition=bottom;labelBackgroundColor=default;verticalAlign=top;aspect=fixed;imageAspect=0;image=https://static-00.iconduck.com/assets.00/redis-original-wordmark-icon-2045x2048-nz2tg5u6.png;" vertex="1" parent="1">
          <mxGeometry x="438.51" y="293.72" width="95.44" height="95.6" as="geometry" />
        </mxCell>
        <mxCell id="D0wNAowwjaqCvrToGeFX-32" value="● Endpoint caching&lt;br&gt;● Produtos queue management" style="text;html=1;strokeColor=none;fillColor=none;align=left;verticalAlign=middle;whiteSpace=wrap;rounded=0;" vertex="1" parent="1">
          <mxGeometry x="410" y="380" width="220" height="70" as="geometry" />
        </mxCell>
      </root>
    </mxGraphModel>
  </diagram>
</mxfile>
